<svg width="122" height="24" viewBox="0 0 122 24" fill="none" xmlns="http://www.w3.org/2000/svg">
<path d="M6.456 0.535999V23H0.984V0.535999H6.456ZM30.5175 23H25.0455L15.8935 9.144V23H10.4215V0.535999H15.8935L25.0455 14.456V0.535999H30.5175V23ZM33.556 11.736C33.556 9.51733 34.036 7.544 34.996 5.816C35.956 4.06667 37.2893 2.712 38.996 1.752C40.724 0.770665 42.676 0.279999 44.852 0.279999C47.5187 0.279999 49.8013 0.983999 51.7 2.392C53.5987 3.8 54.868 5.72 55.508 8.152H49.492C49.044 7.21333 48.404 6.49867 47.572 6.008C46.7613 5.51733 45.8333 5.272 44.788 5.272C43.1027 5.272 41.7373 5.85867 40.692 7.032C39.6467 8.20533 39.124 9.77333 39.124 11.736C39.124 13.6987 39.6467 15.2667 40.692 16.44C41.7373 17.6133 43.1027 18.2 44.788 18.2C45.8333 18.2 46.7613 17.9547 47.572 17.464C48.404 16.9733 49.044 16.2587 49.492 15.32H55.508C54.868 17.752 53.5987 19.672 51.7 21.08C49.8013 22.4667 47.5187 23.16 44.852 23.16C42.676 23.16 40.724 22.68 38.996 21.72C37.2893 20.7387 35.956 19.384 34.996 17.656C34.036 15.928 33.556 13.9547 33.556 11.736ZM69.483 23.224C67.371 23.224 65.4297 22.7333 63.659 21.752C61.9097 20.7707 60.5123 19.4053 59.467 17.656C58.443 15.8853 57.931 13.9013 57.931 11.704C57.931 9.50667 58.443 7.53333 59.467 5.784C60.5123 4.03467 61.9097 2.66933 63.659 1.688C65.4297 0.706666 67.371 0.216 69.483 0.216C71.595 0.216 73.5257 0.706666 75.275 1.688C77.0457 2.66933 78.4323 4.03467 79.435 5.784C80.459 7.53333 80.971 9.50667 80.971 11.704C80.971 13.9013 80.459 15.8853 79.435 17.656C78.411 19.4053 77.0243 20.7707 75.275 21.752C73.5257 22.7333 71.595 23.224 69.483 23.224ZM69.483 18.232C71.275 18.232 72.7043 17.6347 73.771 16.44C74.859 15.2453 75.403 13.6667 75.403 11.704C75.403 9.72 74.859 8.14133 73.771 6.968C72.7043 5.77333 71.275 5.176 69.483 5.176C67.6697 5.176 66.219 5.76267 65.131 6.936C64.0643 8.10933 63.531 9.69867 63.531 11.704C63.531 13.688 64.0643 15.2773 65.131 16.472C66.219 17.6453 67.6697 18.232 69.483 18.232ZM92.4313 0.535999C94.7993 0.535999 96.8686 1.00533 98.6393 1.944C100.41 2.88267 101.775 4.20533 102.735 5.912C103.717 7.59733 104.207 9.54933 104.207 11.768C104.207 13.9653 103.717 15.9173 102.735 17.624C101.775 19.3307 100.399 20.6533 98.6073 21.592C96.8366 22.5307 94.7779 23 92.4313 23H84.0153V0.535999H92.4313ZM92.0793 18.264C94.1486 18.264 95.7593 17.6987 96.9113 16.568C98.0633 15.4373 98.6393 13.8373 98.6393 11.768C98.6393 9.69867 98.0633 8.088 96.9113 6.936C95.7593 5.784 94.1486 5.208 92.0793 5.208H89.4873V18.264H92.0793ZM112.737 4.92V9.464H120.065V13.688H112.737V18.616H121.025V23H107.265V0.535999H121.025V4.92H112.737Z" fill="black"/>
</svg>
